<svg xmlns="http://www.w3.org/2000/svg" xmlns:xlink="http://www.w3.org/1999/xlink" width="500" zoomAndPan="magnify" viewBox="0 0 375 374.999991" height="500" preserveAspectRatio="xMidYMid meet" version="1.0"><defs><clipPath id="e4381acf8a"><path d="M 187.5 0 C 83.945312 0 0 83.945312 0 187.5 C 0 291.054688 83.945312 375 187.5 375 C 291.054688 375 375 291.054688 375 187.5 C 375 83.945312 291.054688 0 187.5 0 " clip-rule="nonzero"/></clipPath><clipPath id="67dd25ce5a"><path d="M 77.953125 93 L 296.953125 93 L 296.953125 289.960938 L 77.953125 289.960938 Z M 77.953125 93 " clip-rule="nonzero"/></clipPath><clipPath id="572d3335a1"><path d="M 254 141 L 296.953125 141 L 296.953125 289.960938 L 254 289.960938 Z M 254 141 " clip-rule="nonzero"/></clipPath></defs><g clip-path="url(#e4381acf8a)"><rect x="-37.5" width="450" fill="#000000" y="-37.499999" height="449.999989" fill-opacity="1"/></g><g clip-path="url(#67dd25ce5a)"><path fill="#A8DADC" d="M 296.9375 120.089844 C 296.9375 97.789062 271.308594 85.261719 253.746094 98.980469 L 120.117188 203.359375 L 120.117188 152.4375 L 139.449219 167.742188 L 173.765625 141.070312 L 121.261719 99.523438 C 103.726562 85.644531 77.9375 98.152344 77.9375 120.53125 L 77.9375 289.921875 L 296.9375 120.089844 " fill-opacity="1" fill-rule="nonzero"/></g><g clip-path="url(#572d3335a1)"><path fill="#e63946" d="M 254.757812 173.972656 L 254.757812 268.804688 C 254.757812 280.46875 264.199219 289.921875 275.847656 289.921875 C 287.496094 289.921875 296.9375 280.46875 296.9375 268.804688 L 296.9375 141.652344 L 254.757812 173.972656 " fill-opacity="1" fill-rule="nonzero"/></g></svg>