<svg xmlns="http://www.w3.org/2000/svg" xmlns:xlink="http://www.w3.org/1999/xlink" width="500" height="178" preserveAspectRatio="xMidYMid meet" version="1.0" viewBox="0 0 375 133.5" zoomAndPan="magnify"><defs><clipPath id="e88ae2ae08"><path d="M 0.699219 0 L 148.644531 0 L 148.644531 132.964844 L 0.699219 132.964844 Z M 0.699219 0" clip-rule="nonzero"/></clipPath><clipPath id="50db68d777"><path d="M 120 32 L 148.644531 32 L 148.644531 132.964844 L 120 132.964844 Z M 120 32" clip-rule="nonzero"/></clipPath><clipPath id="00e3621b0f"><path d="M 278 47 L 374.300781 47 L 374.300781 111 L 278 111 Z M 278 47" clip-rule="nonzero"/></clipPath><clipPath id="2dfda7faab"><path d="M 286.007812 40.351562 L 374.28125 51.054688 L 366.8125 112.621094 L 278.542969 101.917969 Z M 286.007812 40.351562" clip-rule="nonzero"/></clipPath><clipPath id="18d653b573"><path d="M 286.007812 40.351562 L 374.28125 51.054688 L 366.8125 112.621094 L 278.542969 101.917969 Z M 286.007812 40.351562" clip-rule="nonzero"/></clipPath><clipPath id="cf59444337"><path d="M 298 41 L 325 41 L 325 71 L 298 71 Z M 298 41" clip-rule="nonzero"/></clipPath><clipPath id="db8bfc1db9"><path d="M 286.007812 40.351562 L 374.28125 51.054688 L 366.8125 112.621094 L 278.542969 101.917969 Z M 286.007812 40.351562" clip-rule="nonzero"/></clipPath><clipPath id="cacd54f0ed"><path d="M 286.007812 40.351562 L 374.28125 51.054688 L 366.8125 112.621094 L 278.542969 101.917969 Z M 286.007812 40.351562" clip-rule="nonzero"/></clipPath></defs><g fill="#A8DADC" fill-opacity="1"><g><g><path d="M 0.257812 0 L 11.324219 0 L 13.289062 -5.117188 L 25.644531 -5.117188 L 27.609375 0 L 38.726562 0 L 24.664062 -36.191406 L 14.320312 -36.191406 Z M 15.460938 -12.769531 L 19.492188 -23.992188 L 23.523438 -12.769531 Z M 15.460938 -12.769531" transform="translate(153.038204, 84.285596)"/></g></g></g><g fill="#A8DADC" fill-opacity="1"><g><g><path d="M 19.390625 0.777344 C 29.160156 0.777344 35.210938 -5.171875 35.210938 -14.890625 L 35.210938 -36.191406 L 24.816406 -36.191406 L 24.816406 -15.5625 C 24.816406 -11.269531 23.007812 -8.996094 19.390625 -8.996094 C 15.769531 -8.996094 13.960938 -11.269531 13.960938 -15.5625 L 13.960938 -36.191406 L 3.515625 -36.191406 L 3.515625 -14.890625 C 3.515625 -5.171875 9.617188 0.777344 19.390625 0.777344 Z M 19.390625 0.777344" transform="translate(192.020766, 84.285596)"/></g></g></g><g fill="#A8DADC" fill-opacity="1"><g><g><path d="M 1.65625 0 L 8.015625 0 C 17.371094 0 22.542969 -4.808594 22.542969 -13.960938 L 22.542969 -36.191406 L 12.097656 -36.191406 L 12.097656 -14.789062 C 12.097656 -11.167969 10.597656 -9.667969 7.136719 -9.667969 L 1.65625 -9.667969 Z M 1.65625 0" transform="translate(230.796527, 84.285596)"/></g></g></g><g fill="#A8DADC" fill-opacity="1"><g><g><path d="M 21.457031 0.777344 C 32.988281 0.777344 41.15625 -7.03125 41.15625 -18.097656 C 41.15625 -29.160156 32.988281 -36.96875 21.457031 -36.96875 C 9.925781 -36.96875 1.757812 -29.160156 1.757812 -18.097656 C 1.757812 -7.03125 9.925781 0.777344 21.457031 0.777344 Z M 12.355469 -18.097656 C 12.355469 -23.523438 16.132812 -27.300781 21.457031 -27.300781 C 26.832031 -27.300781 30.554688 -23.523438 30.554688 -18.097656 C 30.554688 -12.667969 26.832031 -8.894531 21.457031 -8.894531 C 16.132812 -8.894531 12.355469 -12.667969 12.355469 -18.097656 Z M 12.355469 -18.097656" transform="translate(257.112344, 84.285596)"/></g></g></g><g clip-path="url(#e88ae2ae08)"><path fill="#A8DADC" fill-opacity="1" fill-rule="nonzero" d="M 148.636719 18.285156 C 148.636719 3.230469 131.324219 -5.230469 119.460938 4.03125 L 29.1875 74.5 L 29.1875 40.121094 L 42.246094 50.453125 L 65.425781 32.445312 L 29.957031 4.398438 C 18.113281 -4.96875 0.691406 3.472656 0.691406 18.582031 L 0.691406 132.9375 L 148.636719 18.285156"/></g><g clip-path="url(#50db68d777)"><path fill="#e63946" fill-opacity="1" fill-rule="nonzero" d="M 120.140625 54.660156 L 120.140625 118.679688 C 120.140625 126.554688 126.519531 132.9375 134.386719 132.9375 C 142.257812 132.9375 148.636719 126.554688 148.636719 118.679688 L 148.636719 32.839844 L 120.140625 54.660156"/></g><g clip-path="url(#00e3621b0f)"><g clip-path="url(#2dfda7faab)"><g clip-path="url(#18d653b573)"><path fill="#A8DADC" fill-opacity="1" fill-rule="nonzero" d="M 374.203125 51.03125 L 347.925781 47.84375 L 278.648438 101.914062 L 315.636719 82.320312 L 326.386719 107.703125 L 346.601562 110.15625 L 331.296875 74.019531 L 374.203125 51.03125"/></g></g></g><g clip-path="url(#cf59444337)"><g clip-path="url(#db8bfc1db9)"><g clip-path="url(#cacd54f0ed)"><path fill="#e63946" fill-opacity="1" fill-rule="nonzero" d="M 298.226562 41.816406 L 310.632812 70.503906 L 324.894531 58.898438 L 318.472656 44.273438 L 298.226562 41.816406"/></g></g></g></svg>